<?xml version="1.0" encoding="UTF-8" standalone="no"?>
<svg height="24px" viewBox="0 0 24 24" width="24px" fill="#000000" version="1.1" id="svg13"
    sodipodi:docname="ic_cloud_play_24dp.svg" inkscape:version="1.1 (c68e22c387, 2021-05-23)"
    xmlns:inkscape="http://www.inkscape.org/namespaces/inkscape" xmlns:sodipodi="http://sodipodi.sourceforge.net/DTD/sodipodi-0.dtd"
    xmlns="http://www.w3.org/2000/svg">
  <defs
     id="defs17" />
  <sodipodi:namedview
     id="namedview15"
     pagecolor="#ffffff"
     bordercolor="#666666"
     borderopacity="1.0"
     inkscape:pageshadow="2"
     inkscape:pageopacity="0.0"
     inkscape:pagecheckerboard="0"
     showgrid="false"
     inkscape:zoom="12.982481"
     inkscape:cx="10.129035"
     inkscape:cy="11.091871"
     inkscape:window-width="2560"
     inkscape:window-height="1279"
     inkscape:window-x="0"
     inkscape:window-y="0"
     inkscape:window-maximized="1"
     inkscape:current-layer="svg13" />
  <path
     d="M 19.35,10.038741 C 18.67,6.5887403 15.64,3.9987402 12,3.9987402 c -2.8899998,0 -5.4000002,1.6400001 -6.6500002,4.0400001 -3.01,0.32 -5.35,2.8700007 -5.35,5.9600007 0,3.31 2.69,6 6,6 H 19 c 2.76,0 5,-2.24 5,-5 0,-2.64 -2.05,-4.78 -4.65,-4.96 z m -0.35,7.96 H 5.9999998 c -2.21,0 -4,-1.79 -4,-4 0,-2.21 1.79,-4.0000003 4,-4.0000003 h 0.71 C 7.3699998,7.6887403 9.4800002,5.9987403 12,5.9987403 c 3.04,0 5.5,2.46 5.5,5.5000007 v 0.5 H 19 c 1.66,0 3,1.34 3,3 0,1.66 -1.34,3 -3,3 z"
     id="path1365"
     inkscape:label="original cloud"
     style="display:none" />
  <path
     id="path1052"
     style="display:inline"
     d="m 12,3.9987402 c -2.89,0 -5.4003906,1.6390629 -6.6503906,4.0390629 C 2.3396094,8.357803 0,10.90874 0,13.99874 c 0,3.31 2.69,6 6,6 4.433877,-0.04648 1.7463476,0.07073 6.152285,-0.01367 V 17.977256 C 7.7392836,18.029679 10.440664,17.99874 6,17.99874 c -2.21,0 -4,-1.79 -4,-4 0,-2.21 1.79,-3.9999996 4,-3.9999996 H 6.7109375 C 7.3709375,7.6887401 9.48,5.9987401 12,5.9987401 c 3.04,0 5.5,2.4599999 5.5,5.4999999 v 0 l 2.063656,-0.01363 -0.214047,-1.447308 C 18.669609,6.5878031 15.64,3.9987402 12,3.9987402 Z"
     sodipodi:nodetypes="scsccccsscsscccs"
     inkscape:label="cloud" />
  <path
     d="m 14.508362,21.491637 h 2.285715 v -8 h -2.285715 z m 4.571428,-8 v 8 h 2.285715 v -8 z"
     id="path101"
     inkscape:label="pause"
     style="display:none;stroke-width:0.571429" />
  <path
     d="m 15.309475,13.478421 v 8 l 8,-4 z"
     id="path11"
     inkscape:label="play"
     style="display:inline;stroke-width:0.64466" />
</svg>
